# xmcd
#
# Track frame offsets:
# 150
# 24212
# 43901
# 64733
# 81858
# 112440
# 134580
# 155843
# 176298
# 196516
# 216511
# 233845
# 251932
# 273153
# 294917
# 317461
#
# Disc length: 4470 seconds
#
#
# Revision: 6
# Processed by: cddbd v1.5.2PL0 Copyright (c) Steve Scherf et al.
# Submitted via: FreeRIP 2.96 
#
DISCID=ea117410
DTITLE=Arjona, Ricardo - Adentro
DYEAR=2006
DGENRE=Instrumental Rock
TTITLE0=Para Bien O Para Mal
TTITLE1=De Vez En Mes
TTITLE2=Para Que Me Quieras Como Quiero
TTITLE3=Pingüinos En La Cama
TTITLE4=Iluso
TTITLE5=Adiós Melancolia
TTITLE6=Mojado
TTITLE7=Acompáñame A Estar Solo
TTITLE8=No Me Importa Nada
TTITLE9=Laura
TTITLE10=No Te Cambio Por Nada
TTITLE11=Pa'Que
TTITLE12=Ya No Me Acuerdo De Mi
TTITLE13=A Ti
TTITLE14=Bar
TTITLE15=Pingüinos En La Cama [Piano and Strings Version]
EXTD=YEAR: 2006
EXTT0=
EXTT1=
EXTT2=
EXTT3=
EXTT4=
EXTT5=
EXTT6=
EXTT7=
EXTT8=
EXTT9=
EXTT10=
EXTT11=
EXTT12=
EXTT13=
EXTT14=
EXTT15=
PLAYORDER=
